<svg xmlns="http://www.w3.org/2000/svg" width="437.121" height="213.44" shape-rendering="geometricPrecision" text-rendering="geometricPrecision" image-rendering="optimizeQuality" fill-rule="evenodd" clip-rule="evenodd" viewBox="0 0 11565 5647"><g fill="none" stroke="#000" stroke-width="67.73"><path d="M3816 2506c275 30 585 49 852-16 293-72 429-185 624-307 7 863-1042 1055-1476 323zm-338-480c114-339 522-528 718-8-547-236-273-174-718 8zm1235-118c14-214 52-402 220-449 183-51 370 90 451 169-150-7-325-64-434 15l-237 265zm444-1335c-470 153-668 654-1552 433-202-51-457-99-565 77-236 384 277 1503 792 1900 1492 1148 1920-587 1831-1548-32-351-111-991-506-862zm1079 2566c123-192 490-397 841-263 278 105 419 377 399 761-330-178-612-462-1240-498zm1273-792c76 35 189 156 291 220 88 55 247 115 325 164-233 174-628 238-616-384zm-482-206c-49 91-228 289-417 239-157-43-237-233-290-389 241 85 376 186 707 150zm-596-1068c-277 99-413 680-457 962-185 1185 543 2681 1841 1536 255-225 430-422 615-792 103-208 445-883 52-1006-430-135-753 116-1222-181-414-262-549-620-829-519zM3340 4524c264-107 788-511 636-942-278-786-1304-200-1819-250-351-35-123-316 0-406 152-111 318-202 524-276 210-76 411-100 629-168l-135-222c-390 40-946 312-1180 503-499 406-328 815 216 820 437 5 996-359 1373-104 227 154 137 384-10 533-135 138-219 166-388 244l-130 83c109 54 170 133 284 185zm5433 275c-148-57-320-174-310-347 22-397 1041-520 1025-911-11-295-683-429-789-495-83 57-109 107-160 192 148 89 393 79 521 201 341 324-907 481-927 1040-23 643 1431 806 1662 507 44-57 64-199 72-273-375 145-643 259-1094 86z"/><path d="M4890 4397c-129 154-145 308 25 440 119 93 266 189 437 252 163 60 391 120 571 37 660-306-58-932-271-1218-216-289-328-732 192-779l-11-289-229 12c-74 346-232 585-406 796 62 203 204 401 342 537 758 753 209 852-185 627-159-91-243-165-367-294-37-40-48-64-98-121zm856-2723c86-85 84-113 182-210 396-394 237-345 723-601 139-73 480-234 631-64 141 158-95 488-121 668 104 47 164 107 291 140-94-441 204-583 165-886-40-311-556-260-818-177-521 165-705 403-1010 671-102 90-86 186-43 459zm2469 5c137 10 255 29 361 60 80-100 159-140 229-275-33-100-85-220-162-285-84 258-292 372-428 500z"/></g></svg>