<?xml version="1.0" encoding="UTF-8"?>
<!DOCTYPE svg PUBLIC "-//W3C//DTD SVG 1.1//EN" "http://www.w3.org/Graphics/SVG/1.1/DTD/svg11.dtd">
<!-- Creator: CorelDRAW X7 -->
<svg id="dance" xmlns="http://www.w3.org/2000/svg" xml:space="preserve" width="115.655mm" height="56.4726mm" version="1.1" shape-rendering="geometricPrecision" text-rendering="geometricPrecision" image-rendering="optimizeQuality" fill-rule="evenodd" clip-rule="evenodd"
viewBox="0 0 11565 5647"
 xmlns:xlink="http://www.w3.org/1999/xlink">
 <g id="Layer_x0020_1">
  <metadata id="CorelCorpID_0Corel-Layer"/>
  <path fill="none" fill-rule="nonzero" stroke="black" stroke-width="42.33" d="M7310 1981c-38,-108 -203,-131 -305,-148 -103,-18 -302,-170 -388,-55 -50,-50 -62,29 -111,39 -47,9 -73,-55 -130,-20 -59,-35 -109,-272 -196,-217 -85,54 -12,304 -7,382 4,63 2,167 28,233 -48,-56 -94,-111 -132,-176 -62,-103 -150,-207 -191,-320 -23,-66 -31,-132 -54,-196 -17,-50 -55,-99 -48,-157 -74,-83 -70,-178 -113,-280 -14,-33 -34,-107 -59,-132 -23,-24 -136,-1 -148,-18 -24,-33 -45,-120 -60,-155 10,-63 35,-113 5,-137 -73,-60 -170,-148 -265,-153 -120,-5 -144,128 -178,221 -35,93 -96,197 -113,298 -14,89 9,283 106,298 112,17 165,-116 174,-207 92,-15 133,194 150,255 31,113 63,174 132,271 33,47 39,95 59,145 19,52 62,89 79,139 18,49 13,97 35,147 23,51 34,83 43,137 9,48 18,106 35,153 19,51 25,94 40,147 16,60 31,83 21,151 -7,42 -9,74 -3,110 -24,68 -58,128 -97,142 -125,45 -211,-153 -266,-225 -89,-118 -173,-231 -259,-351 -91,-127 -197,-218 -317,-319 -63,-53 -110,-40 -120,-109 -11,-86 -42,-92 -43,-122 -1,-28 8,-125 -20,-115 -19,6 -25,139 -104,132 -55,-6 -62,-149 -107,-141 -9,2 7,56 4,65 -35,-29 -31,-148 -55,-146 -18,1 -6,60 -9,84 -5,-7 -22,-64 -33,-56 -16,10 4,75 13,94 -9,-6 -38,-65 -51,-57 -21,14 27,81 52,121 73,117 208,143 300,247 105,121 149,281 231,417 38,62 76,124 116,185 29,45 81,83 111,131 34,56 42,126 78,182 17,26 73,73 73,103 -1,23 -58,57 -68,82 -6,-4 -27,-18 -35,-18 -68,2 -129,-34 -204,-19 -57,11 -121,31 -168,72 -89,78 -138,268 -56,366 35,41 110,73 158,101 76,45 97,31 187,35 72,3 120,26 194,-1 23,-8 45,-19 66,-32l8 14c25,69 79,123 92,194 17,88 13,139 54,222 67,138 40,280 48,435 8,154 9,320 9,480 0,55 21,197 -11,239 -43,56 -83,21 -141,31 -39,6 -97,4 -101,30 -2,18 101,28 137,39 -26,21 -80,25 -71,39 4,6 114,-9 142,-8 32,1 49,3 79,2 93,-5 41,-51 85,-132 67,-127 52,-251 67,-391 18,-163 60,-280 45,-442 -12,-133 -65,-300 -37,-433 28,-127 118,-173 214,-219 93,17 263,-124 325,-176 103,-86 187,-205 277,-289 58,-53 178,-107 246,-170 33,-6 57,-15 69,-63 14,-57 -19,-118 -2,-173 15,-51 65,-71 99,-107 22,-12 45,-25 64,-43 78,-74 168,-215 217,-313 47,-92 147,-260 109,-369zm-1019 275l0 0c60,-10 117,-56 187,-63 66,-6 151,-19 211,2 -4,64 -234,214 -293,184 0,8 -2,15 -5,22 -43,-43 -90,-83 -125,-127 -6,-8 -12,-15 -18,-22 12,5 26,6 43,4z"/>
 </g>
</svg>
