<?xml version="1.0" encoding="UTF-8"?>
<!DOCTYPE svg PUBLIC "-//W3C//DTD SVG 1.1//EN" "http://www.w3.org/Graphics/SVG/1.1/DTD/svg11.dtd">
<!-- Creator: CorelDRAW X7 -->
<svg id="finearts" xmlns="http://www.w3.org/2000/svg" xml:space="preserve" width="115.655mm" height="56.4726mm" version="1.1" shape-rendering="geometricPrecision" text-rendering="geometricPrecision" image-rendering="optimizeQuality" fill-rule="evenodd" clip-rule="evenodd"
viewBox="0 0 11565 5647"
 xmlns:xlink="http://www.w3.org/1999/xlink">
 <g id="Layer_x0020_1">
  <metadata id="CorelCorpID_0Corel-Layer"/>
  <g id="_2150467597360">
   <path fill="none" stroke="black" stroke-width="42.33" d="M3864 3083c-35,-222 143,-392 325,-417 218,-31 393,137 417,320 64,476 -662,608 -742,97zm517 -1673c228,-36 396,108 435,294 46,219 -112,406 -291,440 -229,44 -406,-111 -442,-290 -46,-229 113,-415 298,-444zm1170 -664c161,-30 297,37 387,104 340,252 207,827 -232,897 -302,48 -545,-175 -582,-424 -42,-276 139,-524 427,-577zm91 -462l-260 0c-35,13 -126,13 -170,21 -173,33 -298,54 -468,133 -312,146 -360,200 -596,394 -75,62 -220,238 -281,319 -114,150 -205,318 -289,506 -160,355 -266,866 -285,1305 -25,533 99,934 490,1107 99,44 210,61 328,71 83,8 78,-16 126,-54 36,-28 78,-54 121,-82 32,-22 87,-48 128,-67 159,-74 96,1 244,-153l1885 -1906c144,-144 244,-258 393,-402l199 -202c-28,-82 -216,-301 -270,-360 -254,-278 -634,-495 -1016,-581 -60,-14 -244,-31 -279,-49z"/>
   <path fill="none" stroke="black" stroke-width="42.33" d="M5684 3100c23,37 497,443 558,506 25,28 52,55 87,72 32,-54 87,-118 125,-167l1677 -2185c127,-165 217,-205 42,-357 -39,-35 -136,-104 -218,-64l-2271 2195z"/>
   <path fill="none" stroke="black" stroke-width="42.33" d="M5101 4786c-122,61 -192,62 -349,69 -374,16 -311,217 -433,179 -49,-15 -61,-81 -68,-134 -9,-66 -2,-132 16,-192 14,-44 41,-112 71,-133 44,26 80,80 135,118 210,143 479,8 628,93zm-770 578l60 0c1,-2 4,-6 5,-5 6,12 8,-7 9,-9 88,-75 10,-112 138,-269 69,-85 230,-67 363,-78 127,-10 241,-52 320,-115 57,-45 162,-162 194,-247 -32,-44 -165,-148 -217,-199 -41,-40 -72,-63 -110,-101l-110 -101c-174,-160 -147,-153 -259,-122 -477,136 -843,626 -492,1133 41,59 52,72 99,113z"/>
   <path fill="none" stroke="black" stroke-width="42.33" d="M5551 746c-288,53 -469,301 -427,577 37,249 280,472 582,424 439,-70 572,-645 232,-897 -90,-67 -226,-134 -387,-104z"/>
   <path fill="none" stroke="black" stroke-width="42.33" d="M5541 3495c54,-14 130,57 127,107 -3,48 -77,115 -105,146 -34,36 -205,244 -240,257 -59,21 -139,-54 -135,-110 2,-36 32,-61 51,-81 56,-62 247,-304 302,-319zm-621 448c16,34 154,149 194,183l442 400c32,-21 270,-297 325,-355 34,-35 46,-55 80,-89l242 -276c-21,-30 -607,-537 -639,-575l-644 712z"/>
   <path fill="none" stroke="black" stroke-width="42.33" d="M3864 3083c80,511 806,379 742,-97 -24,-183 -199,-351 -417,-320 -182,25 -360,195 -325,417z"/>
   <path fill="none" stroke="black" stroke-width="42.33" d="M4381 1410c-185,29 -344,215 -298,444 36,179 213,334 442,290 179,-34 337,-221 291,-440 -39,-186 -207,-330 -435,-294z"/>
   <path fill="none" stroke="black" stroke-width="42.33" d="M5101 4786c-149,-85 -418,50 -628,-93 -55,-38 -91,-92 -135,-118 -30,21 -57,89 -71,133 -18,60 -25,126 -16,192 7,53 19,119 68,134 122,38 59,-163 433,-179 157,-7 227,-8 349,-69z"/>
   <path fill="none" stroke="black" stroke-width="42.33" d="M5541 3495c-55,15 -246,257 -302,319 -19,20 -49,45 -51,81 -4,56 76,131 135,110 35,-13 206,-221 240,-257 28,-31 102,-98 105,-146 3,-50 -73,-121 -127,-107z"/>
  </g>
 </g>
</svg>
