<?xml version="1.0" encoding="UTF-8"?>
<!DOCTYPE svg PUBLIC "-//W3C//DTD SVG 1.1//EN" "http://www.w3.org/Graphics/SVG/1.1/DTD/svg11.dtd">
<!-- Creator: CorelDRAW X7 -->
<svg xmlns="http://www.w3.org/2000/svg" xml:space="preserve" width="115.655mm" height="56.4726mm" version="1.1" shape-rendering="geometricPrecision" text-rendering="geometricPrecision" image-rendering="optimizeQuality" fill-rule="evenodd" clip-rule="evenodd"
viewBox="0 0 11565 5647"
 xmlns:xlink="http://www.w3.org/1999/xlink">
 <g id="Layer_x0020_1">
  <metadata id="CorelCorpID_0Corel-Layer"/>
  <g id="_2318712163376">
   <path fill="#020202" d="M5178 4628l4 -108c43,-21 513,-152 575,-157 59,-6 493,127 566,159 13,173 -16,152 -180,179 -275,47 -751,58 -965,-73zm1278 -20l-47 23 20 -75c26,-51 314,-239 372,-279 73,-50 124,-91 196,-143 83,-61 109,-105 229,-83 -98,168 -502,491 -770,557zm-2189 -640c94,-30 270,145 422,258 82,62 127,97 204,156 148,113 171,101 185,212 -286,-83 -727,-443 -811,-626zm1474 270c-92,77 -343,127 -494,163 -165,39 -215,-53 -423,-205 -65,-47 -343,-236 -378,-280 -50,-64 -29,-486 5,-583 39,-116 344,-162 474,-191 125,-28 461,273 576,356 222,160 297,123 240,740zm111 19c-18,-120 -46,-529 25,-607l357 -279c145,-111 271,-252 383,-245 83,6 451,116 477,159 30,48 -13,504 -24,601 -13,116 -53,130 -134,186 -127,89 -493,356 -607,343 -94,-11 -415,-126 -477,-158zm1321 -309c-30,-101 28,-573 75,-689 27,-66 245,-455 316,-507 38,99 117,177 102,326 -38,387 -210,627 -356,902l-137 -32zm-1380 -367c-103,-47 -277,-197 -380,-271 -444,-316 -357,-199 -164,-797 99,-303 34,-274 374,-274 709,1 590,-52 702,307 51,162 127,346 152,520 -169,101 -574,470 -684,515zm-1900 -540c-20,-162 -42,-200 95,-248 56,37 44,35 92,108 283,431 305,327 236,932l-115 37c-164,-170 -277,-572 -308,-829zm3277 138c-102,-12 -395,-105 -507,-142 -107,-36 -96,-63 -135,-183 -75,-232 -236,-593 -156,-725 29,-49 249,-334 283,-357 95,-62 354,83 466,127 122,48 126,23 169,150 128,368 242,476 114,729 -60,118 -160,311 -234,401zm-2405 -1418c134,-37 150,-61 231,56 295,429 269,331 171,636 -42,130 -112,382 -166,491 -69,134 -278,156 -438,200 -127,35 -180,25 -244,-56 -41,-53 -89,-130 -127,-192 -129,-217 -160,-184 -58,-458 58,-157 109,-339 172,-486 56,-133 318,-153 459,-191zm2621 66c127,106 236,496 269,683 14,81 42,203 5,278 -34,-84 -77,-138 -108,-236 -27,-88 -50,-163 -76,-243 -40,-124 -175,-383 -90,-482zm-3490 757c30,-246 129,-532 258,-741 38,-63 20,-45 72,-82 33,85 -241,882 -322,952l-8 -129zm2046 -443c-272,1 -567,56 -691,-113 -228,-310 -263,-357 -153,-494 84,-105 253,-390 377,-401 201,-18 556,10 773,13 73,152 275,379 321,531 -32,98 -164,250 -229,335 -124,163 -97,130 -398,129zm-1573 -378c-38,-73 -87,-68 -49,-154 51,-117 716,-658 951,-598 54,125 -50,201 -113,285 -58,77 -122,171 -182,244 -80,97 -434,200 -607,223zm2902 54c-110,16 -502,-157 -594,-218 -85,-56 -269,-357 -344,-478l56 -97c209,51 422,192 562,302 168,132 391,286 320,491zm-1772 -877c154,-32 424,-19 584,4 231,34 160,31 174,75 -77,77 -323,27 -442,23 -113,-4 -335,20 -393,-44 15,-59 -14,-39 77,-58zm-1723 1689l0 390c69,164 11,300 209,699 261,526 700,886 1267,1049 115,33 305,45 386,74l308 0c98,-39 255,-44 367,-75 684,-188 1212,-721 1400,-1402 30,-106 51,-318 76,-386l0 -343c-45,-105 -49,-268 -84,-385 -199,-664 -722,-1185 -1392,-1369 -110,-31 -272,-36 -368,-75l-307 0c-255,92 -682,19 -1261,580 -152,148 -277,315 -392,543 -57,114 -95,210 -132,335 -29,102 -43,281 -77,365z"/>
   <path fill="#FEFEFE" d="M5793 3581c110,-45 515,-414 684,-515 -25,-174 -101,-358 -152,-520 -112,-359 7,-306 -702,-307 -340,0 -275,-29 -374,274 -193,598 -280,481 164,797 103,74 277,224 380,271z"/>
   <path fill="#FEFEFE" d="M5741 4238c57,-617 -18,-580 -240,-740 -115,-83 -451,-384 -576,-356 -130,29 -435,75 -474,191 -34,97 -55,519 -5,583 35,44 313,233 378,280 208,152 258,244 423,205 151,-36 402,-86 494,-163z"/>
   <path fill="#FEFEFE" d="M5942 2141c301,1 274,34 398,-129 65,-85 197,-237 229,-335 -46,-152 -248,-379 -321,-531 -217,-3 -572,-31 -773,-13 -124,11 -293,296 -377,401 -110,137 -75,184 153,494 124,169 419,114 691,113z"/>
   <path fill="#FEFEFE" d="M5852 4257c62,32 383,147 477,158 114,13 480,-254 607,-343 81,-56 121,-70 134,-186 11,-97 54,-553 24,-601 -26,-43 -394,-153 -477,-159 -112,-7 -238,134 -383,245l-357 279c-71,78 -43,487 -25,607z"/>
   <path fill="#FEFEFE" d="M4765 1761c-141,38 -403,58 -459,191 -63,147 -114,329 -172,486 -102,274 -71,241 58,458 38,62 86,139 127,192 64,81 117,91 244,56 160,-44 369,-66 438,-200 54,-109 124,-361 166,-491 98,-305 124,-207 -171,-636 -81,-117 -97,-93 -231,-56z"/>
   <path fill="#FEFEFE" d="M7170 3179c74,-90 174,-283 234,-401 128,-253 14,-361 -114,-729 -43,-127 -47,-102 -169,-150 -112,-44 -371,-189 -466,-127 -34,23 -254,308 -283,357 -80,132 81,493 156,725 39,120 28,147 135,183 112,37 405,130 507,142z"/>
   <path fill="#FEFEFE" d="M7173 3948l137 32c146,-275 318,-515 356,-902 15,-149 -64,-227 -102,-326 -71,52 -289,441 -316,507 -47,116 -105,588 -75,689z"/>
   <path fill="#FEFEFE" d="M4369 1763c173,-23 527,-126 607,-223 60,-73 124,-167 182,-244 63,-84 167,-160 113,-285 -235,-60 -900,481 -951,598 -38,86 11,81 49,154z"/>
   <path fill="#FEFEFE" d="M6333 1121c75,121 259,422 344,478 92,61 484,234 594,218 71,-205 -152,-359 -320,-491 -140,-110 -353,-251 -562,-302l-56 97z"/>
   <path fill="#FEFEFE" d="M5178 4628c214,131 690,120 965,73 164,-27 193,-6 180,-179 -73,-32 -507,-165 -566,-159 -62,5 -532,136 -575,157l-4 108z"/>
   <path fill="#FEFEFE" d="M4201 3870l115 -37c69,-605 47,-501 -236,-932 -48,-73 -36,-71 -92,-108 -137,48 -115,86 -95,248 31,257 144,659 308,829z"/>
   <path fill="#FEFEFE" d="M6429 4556c-2,83 -10,33 27,52 268,-66 672,-389 770,-557 -120,-22 -146,22 -229,83 -72,52 -123,93 -196,143 -58,40 -346,228 -372,279z"/>
   <path fill="#FEFEFE" d="M4689 4226c-152,-113 -328,-288 -422,-258 84,183 525,543 811,626 -14,-111 -37,-99 -185,-212 -77,-59 -122,-94 -204,-156z"/>
   <path fill="#FEFEFE" d="M7660 2788c37,-75 9,-197 -5,-278 -33,-187 -142,-577 -269,-683 -85,99 50,358 90,482 26,80 49,155 76,243 31,98 74,152 108,236z"/>
   <path fill="#FEFEFE" d="M3904 2713c81,-70 355,-867 322,-952 -52,37 -34,19 -72,82 -129,209 -228,495 -258,741l8 129z"/>
   <path fill="#FEFEFE" d="M5422 998c58,64 280,40 393,44 119,4 365,54 442,-23 -14,-44 57,-41 -174,-75 -160,-23 -430,-36 -584,-4 -91,19 -62,-1 -77,58z"/>
   <path fill="#8C8C8C" d="M6456 4608c-37,-19 -29,31 -27,-52l-20 75 47 -23z"/>
  </g>
 </g>
</svg>
