<svg xmlns="http://www.w3.org/2000/svg" width="437.121" height="213.44" shape-rendering="geometricPrecision" text-rendering="geometricPrecision" image-rendering="optimizeQuality" fill-rule="evenodd" clip-rule="evenodd" viewBox="0 0 11565 5647"><path fill="none" stroke="#000" stroke-width="67.73" d="M5919 2842c52-32 88-19 157-22 122 1 230-30 198 203-7 54-28 66-60 69-27 25-110 13-153 12-58-1-103 10-140-25-42-53-39-177-2-237zm-505-22c71 2 183-17 225 30 28 32 29 200 9 200-32 68-76 54-164 54-97 0-258 37-202-218 14-63 63-63 132-66zm1392-246c8-34 94-111 102-117 29-17 127 15 190 9 102-9 88-47 156 24 40 42 88 58 83 129-35 71-173 88-264 88-45 3-357-26-267-133zm-1450-523c0-106 16-138 128-138h596c91 0 117 32 117 120 0 157 18 225-136 225h-183c-529 0-521 46-522-207zm1669-178c295-59 377 393 88 451-296 59-395-390-88-451zm-2195 713c-66 42-189 105-272 115-164 34-333-39-437-112-90-63-188-187-227-333-140-527 410-912 833-714 282 131 425 444 336 730-34 108-167 273-233 314zm2708-748c110-64 134 173 135 259 0 77-23 311-127 268-20-9-90-80-106-97-47-49-8-85-7-162 2-86-74-164 105-268zm-824 108c6 66-24 114-14 197 14 103 32 85-32 148-88 85-144 150-192-49-27-112-21-240 17-346 55-157 136-20 221 50zm258-448c89-15 283-2 346 48 59 49-13 106-36 130-38 37-55 82-123 67-244-54-162 80-310-67-122-122-28-152 123-178zm-3134 121c-5 30 2 9-16 35-6 10-13 19-22 34-140 193-228 552-308 791-7 22-13 39-20 63l-26 63c3 34-105 394-123 468-5 19-8 31-13 50-1 4-6 27-7 30l-9 20c0 2-2 5-3 7l5 17c-61 158-98 529-68 698 37 209 174 399 372 433 295 52 575-255 724-475l158-254 151-279h2285l197 355c36 61 70 114 108 167l122 163c125 140 286 306 495 328 124 14 150-25 238-43 18-24 68-51 92-75 247-250 171-666 101-973-85-370-194-728-308-1084-87-270-181-488-375-671-405-382-1006-148-1178 170l-1256 1c-44-43-74-96-115-134-40-38-87-73-140-108-286-185-671-176-933 71-27 25-38 39-62 66-28 30-36 45-66 66z"/></svg>