<?xml version="1.0" encoding="UTF-8"?>
<!DOCTYPE svg PUBLIC "-//W3C//DTD SVG 1.1//EN" "http://www.w3.org/Graphics/SVG/1.1/DTD/svg11.dtd">
<!-- Creator: CorelDRAW X7 -->
<svg xmlns="http://www.w3.org/2000/svg" xml:space="preserve" width="115.655mm" height="56.4726mm" version="1.1" shape-rendering="geometricPrecision" text-rendering="geometricPrecision" image-rendering="optimizeQuality" fill-rule="evenodd" clip-rule="evenodd"
viewBox="0 0 11565 5647"
 xmlns:xlink="http://www.w3.org/1999/xlink">
 <g id="Layer_x0020_1">
  <metadata id="CorelCorpID_0Corel-Layer"/>
  <g id="_1872513764096">
   <path fill="none" stroke="black" stroke-width="42.33" d="M6459 3711c-272,-225 -545,-449 -818,-673 -29,-31 262,-125 296,-128 123,-9 250,28 350,100 222,159 279,458 172,701zm-94 137c-176,232 -484,379 -775,363 -661,-37 -811,-765 -743,-1300 14,-115 36,-229 57,-343 80,63 157,129 235,193 59,50 157,85 120,163 -63,130 -83,272 -68,416 30,281 254,499 533,530 34,4 367,-5 303,-89 -26,-35 -249,9 -306,-10 -268,-91 -304,-452 -158,-659 147,122 294,244 441,365 82,68 164,136 245,203 60,51 173,93 116,168zm-1836 -1765l-10 27c-208,-148 -373,-353 -468,-590 -55,-138 -144,-508 93,-542 193,-28 314,260 357,404 69,226 67,469 28,701zm2725 2430c-87,-297 -402,-475 -627,-662 -91,-76 -91,-70 -50,-177 25,-65 44,-131 55,-200 21,-127 14,-259 -28,-382 -180,-529 -871,-719 -1258,-297 -90,-76 -182,-150 -274,-224 -38,-31 -152,-92 -146,-148 18,-163 17,-327 -7,-489 -57,-383 -244,-741 -555,-978 -148,-113 -317,-231 -498,-284 -177,-51 -210,110 -208,254 4,389 249,760 513,1026 86,86 345,226 328,352 -24,184 -47,369 -54,554 -14,343 19,704 232,988 442,590 1357,650 1803,29 235,189 636,403 678,733 18,137 -36,270 -125,372 -73,83 -249,217 -361,123 246,-160 146,-529 -143,-556 -292,-28 -415,309 -276,532 327,526 1154,-49 1001,-566z"/>
   <path fill="none" stroke="black" stroke-width="42.33" d="M6770 1349l11 15c55,103 138,186 215,274 66,75 120,169 137,286l-8 77c-97,-72 -199,-149 -268,-248 -71,-99 -131,-221 -87,-404zm-33 -90l10 34 -14 37c-30,97 -41,206 -22,298 19,97 66,181 119,256 53,73 115,143 177,210 45,48 80,102 93,175l-5 55 51 5 143 -1518c70,73 211,90 349,35 165,-66 263,-211 218,-325 -46,-114 -217,-153 -382,-87 -147,58 -241,180 -228,286l-81 861c-63,-49 -124,-93 -187,-141 -95,-73 -199,-155 -213,-296 -16,-148 36,-291 98,-383l10 -25c-25,-15 -44,24 -53,39 -38,59 -70,125 -88,201 -26,108 -19,208 5,283z"/>
  </g>
 </g>
</svg>
