<?xml version="1.0" encoding="UTF-8"?>
<!DOCTYPE svg PUBLIC "-//W3C//DTD SVG 1.1//EN" "http://www.w3.org/Graphics/SVG/1.1/DTD/svg11.dtd">
<!-- Creator: CorelDRAW X7 -->
<svg id="online" xmlns="http://www.w3.org/2000/svg" xml:space="preserve" width="115.655mm" height="56.4726mm" version="1.1" shape-rendering="geometricPrecision" text-rendering="geometricPrecision" image-rendering="optimizeQuality" fill-rule="evenodd" clip-rule="evenodd"
viewBox="0 0 11565 5647"
 xmlns:xlink="http://www.w3.org/1999/xlink">
 <g id="Layer_x0020_1">
  <metadata id="CorelCorpID_0Corel-Layer"/>
  <path fill="none" stroke="black" stroke-width="67.73" d="M3945 1733c0,-669 160,-475 2041,-476 1646,0 1682,-162 1683,476 0,1699 155,1789 -466,1790 -848,0 -2467,67 -3224,-54l-34 -1736zm-469 -324c1,2997 -406,2581 2266,2581 740,-1 1709,95 2308,-105 125,-659 195,-2404 -19,-2981 -507,-202 -3194,-105 -3911,-105 -455,0 -644,163 -644,610zm1177 3488c306,170 2089,136 2304,0l-177 -148c-522,-323 -219,-154 -470,-605l-973 -16 -257 432c-217,256 -215,61 -427,337zm589 -3262l108 1229 311 -259 426 579 192 -96 -418 -581 396 -214 -1015 -658z"/>
 </g>
</svg>
