<svg xmlns="http://www.w3.org/2000/svg" width="437.121" height="213.44" shape-rendering="geometricPrecision" text-rendering="geometricPrecision" image-rendering="optimizeQuality" fill-rule="evenodd" clip-rule="evenodd" viewBox="0 0 11565 5647"><path fill-rule="nonzero" d="M1582 4526c-19 14-45 9-59-10-13-19-9-46 11-59l48 69zm1736-1219L1582 4526l-48-69 1735-1219 39-6 10 75zm-49-69c19-14 46-9 59 10 14 19 9 46-10 59l-49-69zm1968 768l-1958-694 29-80 1957 694 23 62-51 18zm28-80c22 8 34 32 26 54s-32 33-54 26l28-80zm1011-1580l-988 1642-73-44 989-1642 37-20 35 64zm-72-44c12-20 38-26 58-14s26 38 14 58l-72-44zm2084 107l-2049-43 2-84 2049 42 24 76-26 9zm2-85c23 1 42 20 41 43 0 24-20 42-43 42l2-85zm1260-861l-1236 937-51-67 1236-938 51 68zm212-214l-319 560-3-17-4-17-4-17-5-16-5-16-5-16-6-15-6-16-7-15-7-14-7-14-8-14-8-14-9-14-9-13-9-12-10-13-10-12-11-12-11-12-11-11-12-11-12-11-13-10-13-10-13-10-14-9-14-10-15-8-14-9-16-8-15-8 625-156zm-263 146c19-14 45-10 60 8 14 19 10 45-9 60l-51-68z"/></svg>