<svg xmlns="http://www.w3.org/2000/svg" width="437.121" height="213.44" shape-rendering="geometricPrecision" text-rendering="geometricPrecision" image-rendering="optimizeQuality" fill-rule="evenodd" clip-rule="evenodd" viewBox="0 0 11565 5647"><g fill="none" stroke="#000" stroke-width="42.33"><path d="M3663 4241c-7 34-73 46-103 58-29 11-107 52-121 23-15-33 81-54 103-62 36-14 94-51 121-19zm220 28c23-49 451-154 412-609-17-205-176-559-340-746l21-15c52 31 217 327 247 393 143 313 171 675-150 891-44 30-148 98-190 86zm569-1721c59 55-75 115-89 110-71-30 56-109 89-110zm-637 705c-9 22-66 59-88 75-39 29-29 110-138 133-58 12-65-10-72 0 59 64 123 22 165-10 64-48 128-95 191-144 157-122-80-236-67-343 44-27 21 13 63 6 16-2 54-27 70-35 51 44 180 291 213 360 53 115 95 239 106 351 10 107-1 217-67 322-60 96-211 224-324 262-50-25-36-33-99-7-51 21-68 42-93-10 27-41 58-46 26-101-43-76-23-45-14-107-29-66-91-61-79-146 11-80-70-60-77-144-7-78 48-42-45-148-38-43-85-128-8-121 1-22-43-28-71-107-1-1-6-17-6-18-1-2-1-4-2-6l-3-18c9-29 21-38 55-60l40 25c21-17 15-26 40-45 10-8 18-9 25-14 16-11 9-2 14-18-4-24-11-27 7-49 26-33 120-96 160-109 28 25 54 78 76 115 27 48 43 74 2 111zm698-932c53 19-31 70-52 86-282 212-1560 1194-1620 1213-37-42 15-61 54-90l755-571c79-59 837-647 863-638zm536-450c-26 19-32 7-51-19-55-74-126-136-77-158 30 19 128 146 128 177zm-518 379c-24-13-115-130-121-160 30-35 32-12 87 60 27 35 79 78 34 100zm1014-952c20-25 71-61 98-57 36 6 54 49 33 77-81 109-180 43-131-20zM2633 3332c33-63 1359-1022 1408-1079 34-39 24-171 24-225 1-56 16-66 76-83 48-14 73-22 113 24 35 41 63 88 99 129-276 217-566 426-846 639-111 85-782 602-843 629-16-10-23-14-31-34zm1266-1198c16 25 9 51 1 77-11 35-109 112-152 114-25 2-52 3-74-22l225-169zm-434-181c-19-37 76-93 108-113 55-35 72 32 93 77 15 33 16 38-12 62-21 17-49 39-71 48-23 0-104-46-118-74zm-759 54l7 29c11 42 12 13-3 37-55-23-71-107-75-157-7-75-11-245-2-314 4-35 0-131 67-138 7 20 3 10-1 37-10 73-17 159-16 233 0 51 0 225 23 273zm-188 51c-63 0-61-262-61-292 0-71-8-248 48-293 13 26 7 8 1 38-21 102-21 303-12 403 5 56 28 131 24 144zm-27-679c46-78 218-25 175 48-25 42-88 40-113 34-17-4-38-14-51-28-23-24-21-35-11-54zm1444-387c-26-1-53-29-149-29-759-2-528 37-717 239-73 78-278 244-367 236-37-45 13-82-75-114-187-68-172 147-183 270-7 82-3 176 0 263 1 45-5 230 58 262 47-15 35-48 38-73 30-23 66-25 89-13 47 23 16 31 86 46 127 28 430-34 554-82 99-38 92-90 183-28 100 69 78 60 70 153-3 34-4 55 24 91 113 149 75 102 167 132 25 9 69 29 73 67-13 33-573 443-647 491-101-125-131 34-325 145-171 98-275-44-310 14-15 67 110 141 143 208-20 39-52 45-24 93 37 61 31 48 28 105-2 47 60 205 124 193 7-1 8-2 15-4 14-3 13-4 27-2 24 5 35 22 56 22 72 0 153-215 304 131 36 81 61 159 84 242 11 40 22 79 32 119 8 37 15 99 40 127 35 15 81-4 84 32 1 54-117 13-142 70-5 39 20 94 41 143 70 160 56 76 410-87 315-145 57-95 262-190 561-260 382-817 126-1231-31-50-79-111-103-158 39-40 87-78 12-109l179-137c3 24 7 58 42 65 49 9 101-93 95 11-5 91 198 305 226 432 20 88 29 187 148 149 43-13 216-79 242-113-3-40-32-49-49-85-19-39-8-57-55-99-25-23-57-31-67-70-15-55 3-45-54-89-42-32-38-29-58-78-22-52-41-35-72-68-31-32-16-57-40-90-33-44-47-6-79-58 25-22 133-83 18-130 67-53 70-60 13-113 20-49 31-8 53-48 19-33-11-19 37-56l387-291c30 1 36 50 80 20 46-32-7-67 7-86l303-229c40-14 6 77 158-38 99-75 108-77 81-144l89-68c30 12 28 35 66 13 121-69 68-98 4-183-44-59-83-169-195-24l14 44-91 69c-56-48-67-32-155 34-109 82-101 76-81 140l-313 238c-30-17-40-47-75-23-33 22-20 50 0 79l-413 313c-28 14-19-27-88 26-22-33-117-158-146-172-30-15-138-3-174 23-41 31-27 180-25 250 1 35 3 53-41 82-143-182 21-87-163-305-46-54-89-1-136-44l-62-129c-14-46 7 39-3-10-6-36 72-47 154-163 21-30 55-86 73-128 97-39 165-487 78-491zm-457 2454c20 17 13 17 39 15 7-10 14 12 72 0 109-23 99-104 138-133 22-16 79-53 88-75-42 35-163 137-205 145 0 11 13 1-9 12-29 14-88-3-109-26-23-27-10-14-7-24-36-22-57-12-89-63l3 18c1 2 1 4 2 6 0 1 5 17 6 18 28 79 72 85 71 107zm670-1404c-13 23-27 44 7 70 24 20 53 12 75-24 39-65-39-125-82-46zm304 506c-33 1-160 80-89 110 14 5 148-55 89-110zm-903 745l32 16c0-1 1-4 2-5 0-1 2-3 2-4l8-13c8-9 9-7 17-11 22 17 20 24 32 49 23 0 31 0 56-11-22-33-61-37-92-75-29 3-91 23-57 54zm-58-31c9 7 14 10 27 17l31 14c-34-31 28-51 57-54l-36-54c-5 16 2 7-14 18-7 5-15 6-25 14-25 19-19 28-40 45zm119 136c-48-3-77-19-125-38-3 10-16-3 7 24 21 23 80 40 109 26 22-11 9-1 9-12zm-29-89l61 16c-12-25-10-32-32-49-8 4-9 2-17 11l-8 13c0 1-2 3-2 4-1 1-2 4-2 5z"/><path d="M6018 4334c44-76 264-389 329-434l644 1c50 124 265 342 297 451-276 279-242 494-867 389-123-21-105-33-163-107-76-97-189-191-240-300zm1229 280c-14 33 29 15-42 32 26-77-3-9 40-38 19-40 121-171 157-203 50-44 192-91 257-105 19-27-35-15 49-26-18 83 3 9-35 41-30 31-45 50-82 87-35 36-65 50-108 84-55 44-156 118-236 128zm-1602-310c82 14 213 62 270 115 41 38 152 176 174 218-189-62-339-212-458-311-40-24-20 39-39-55 90 21 31 7 53 33zm1624-1067l44-44 481-151c277 416 303 410 201 742-59 190-95 276-214 325-127 53-267 119-396 151-45-89-292-385-294-445-1-60 152-467 178-578zm-1751-190c127 30 279 87 407 128 139 44 116 91 202 357 21 66 48 139 68 204 38 121 16 115-51 202-67 88-164 247-240 319-118-34-257-95-375-146-125-53-157-143-217-323-64-189-91-287-7-420 44-69 165-276 213-321zm1138-236l506 368-191 598h-604c-56-29-14 25-53-65l-70-219c-30-94-83-221-96-316l508-366zm1364 211c11 13 23-4 37 87 6 39 5 70 1 113l-43-39c-43-190-154-57-150-531l22 22c58 70 123 266 133 348zm-2770 178c14-173 98-459 189-559 5 106 5 258-38 342-35 70-98 176-151 217zm1468-1025c52-30 333-97 407-112 136-27 268 75 353 138 282 207 274 269 273 724-332 103-454 206-595 98-541-409-442-186-438-848zm-1164 754c-6-457-4-539 276-732 274-188 307-165 760-29l-1 527-448 333c-163 119-245-27-587-99zm798-958c169-42 454-78 596 10-234 58-358 105-596-10zM5121 3485c70 799 775 1472 1670 1392 810-73 1468-774 1390-1681-68-796-786-1455-1665-1380-802 69-1473 779-1395 1669z"/></g></svg>